# xmcd CD database file
#
# Track frame offsets:
#	150
#	18452
#	38800
#
# Disc length: 760 seconds
#
# Revision: 0
# Processed by: cddbd v1.5.1PL2 Copyright (c) Steve Scherf et al.
# Submitted via: CDex 1.51
#
DISCID=1b02f603
DTITLE=秋吉契里 - 青白い炎のように揺れ続けて
DYEAR=1998
DGENRE=J-POP
TTITLE0=青白い炎のように揺れ続けて
TTITLE1=いちばん遠いのは
TTITLE2=青白い炎のように揺れ続けて(Original Karaoke)
EXTD=YEAR: 1998
EXTT0=
EXTT1=
EXTT2=
PLAYORDER=
